<?xml version="1.0" encoding="iso-8859-1"?>
<!-- Generator: Adobe Illustrator 19.0.0, SVG Export Plug-In . SVG Version: 6.00 Build 0)  -->
<svg version="1.1" id="Capa_1" xmlns="http://www.w3.org/2000/svg" xmlns:xlink="http://www.w3.org/1999/xlink" x="0px" y="0px"
	 viewBox="0 0 512 512" style="enable-background:new 0 0 512 512;" xml:space="preserve">
<path style="fill:#3C3A41;" d="M376,90h-90c-5.2,0-10.02-2.695-12.759-7.119s-2.988-9.946-0.659-14.59l30-60
	C305.131,3.208,310.316,0,316,0h60c8.291,0,15,6.709,15,15v60C391,83.291,384.291,90,376,90z"/>
<path style="fill:#FEDB41;" d="M406,60H106c-8.401,0-15,6.599-15,15v422c0,8.399,6.599,15,15,15h300c8.401,0,15-6.601,15-15V75
	C421,66.599,414.401,60,406,60z"/>
<path style="fill:#FCBF29;" d="M421,75v422c0,8.399-6.599,15-15,15H256V60h150C414.401,60,421,66.599,421,75z"/>
<path style="fill:#A24F3D;" d="M451,75c0,8.401-6.599,15-15,15H76c-8.401,0-15-6.599-15-15s6.599-15,15-15h360
	C444.401,60,451,66.599,451,75z"/>
<path style="fill:#8B432D;" d="M451,75c0,8.401-6.599,15-15,15H256V60h180C444.401,60,451,66.599,451,75z"/>
<path style="fill:#A24F3D;" d="M451,135c0,8.399-6.599,15-15,15H76c-8.401,0-15-6.601-15-15c0-8.401,6.599-15,15-15h360
	C444.401,120,451,126.599,451,135z"/>
<path style="fill:#8B432D;" d="M451,135c0,8.399-6.599,15-15,15H256v-30h180C444.401,120,451,126.599,451,135z"/>
<path style="fill:#A24F3D;" d="M451,437c0,8.399-6.599,15-15,15H76c-8.401,0-15-6.601-15-15c0-8.401,6.599-15,15-15h360
	C444.401,422,451,428.599,451,437z"/>
<path style="fill:#8B432D;" d="M451,437c0,8.399-6.599,15-15,15H256v-30h180C444.401,422,451,428.599,451,437z"/>
<path style="fill:#A24F3D;" d="M451,497c0,8.399-6.599,15-15,15H76c-8.401,0-15-6.601-15-15c0-8.401,6.599-15,15-15h360
	C444.401,482,451,488.599,451,497z"/>
<path style="fill:#8B432D;" d="M451,497c0,8.399-6.599,15-15,15H256v-30h180C444.401,482,451,488.599,451,497z"/>
<path style="fill:#57555C;" d="M322.599,281.199L268.9,188.5c-2.699-4.501-7.8-6.901-12.9-6.901S245.799,184,243.1,188.5
	l-50.099,86.7C185.2,287.5,181,301.599,181,316c0,41.4,33.6,75,75,75s75-33.6,75-75C331,304.3,328.299,292.299,322.599,281.199z"/>
<path style="fill:#3C3A41;" d="M331,316c0,41.4-33.6,75-75,75V181.599c5.099,0,10.201,2.401,12.9,6.901l53.699,92.699
	C328.299,292.299,331,304.3,331,316z"/>
<g>
</g>
<g>
</g>
<g>
</g>
<g>
</g>
<g>
</g>
<g>
</g>
<g>
</g>
<g>
</g>
<g>
</g>
<g>
</g>
<g>
</g>
<g>
</g>
<g>
</g>
<g>
</g>
<g>
</g>
</svg>
